HIERARCHY
ROOT HipCenter
{
    OFFSET 0.0 0.0 -0.0
    CHANNELS 6 Xposition Yposition Zposition Zrotation Xrotation Yrotation
    JOINT Spine
    {
        OFFSET 0.0 12.102405548095703 0.0
        CHANNELS 3 Zrotation Xrotation Yrotation
        JOINT ShoulderCenter
        {
            OFFSET 0.0 33.39867401123047 0.0
            CHANNELS 3 Zrotation Xrotation Yrotation
            JOINT LeftShoulder
            {
                OFFSET 19.018089294433594 0.0 0.0
                CHANNELS 3 Zrotation Xrotation Yrotation
                JOINT LeftElbow
                {
                    OFFSET 29.74721908569336 0.0 0.0
                    CHANNELS 3 Zrotation Xrotation Yrotation
                    JOINT LeftWrist
                    {
                        OFFSET 29.610109329223633 0.0 0.0
                        CHANNELS 3 Zrotation Xrotation Yrotation
                        JOINT LeftHand
                        {
                            OFFSET 4.401429176330566 0.0 0.0
                            CHANNELS 3 Zrotation Xrotation Yrotation
                            End Site
                            {
                                OFFSET 1.7605717182159424 0.0 0.0
                            }
                        }
                    }
                }
            }
            JOINT RightShoulder
            {
                OFFSET -19.018089294433594 0.0 0.0
                CHANNELS 3 Zrotation Xrotation Yrotation
                JOINT RightElbow
                {
                    OFFSET -29.74721908569336 0.0 0.0
                    CHANNELS 3 Zrotation Xrotation Yrotation
                    JOINT RightWrist
                    {
                        OFFSET -29.610109329223633 0.0 0.0
                        CHANNELS 3 Zrotation Xrotation Yrotation
                        JOINT RightHand
                        {
                            OFFSET -4.401429176330566 0.0 0.0
                            CHANNELS 3 Zrotation Xrotation Yrotation
                            End Site
                            {
                                OFFSET -1.7605717182159424 0.0 0.0
                            }
                        }
                    }
                }
            }
            End Site
            {
                OFFSET 0.0 13.359467506408691 0.0
            }
        }
    }
    JOINT LeftHip
    {
        OFFSET 13.970595359802246 0.0 0.0
        CHANNELS 3 Zrotation Xrotation Yrotation
        JOINT LeftKnee
        {
            OFFSET 0.0 -40.64476013183594 0.0
            CHANNELS 3 Zrotation Xrotation Yrotation
            JOINT LeftAnkle
            {
                OFFSET 0.0 -44.77924728393555 0.0
                CHANNELS 3 Zrotation Xrotation Yrotation
                JOINT LeftFoot
                {
                    OFFSET 0.0 -10.066080093383789 0.0
                    CHANNELS 3 Zrotation Xrotation Yrotation
                    End Site
                    {
                        OFFSET 0.0 0.0 4.026432037353516
                    }
                }
            }
        }
    }
    JOINT RightHip
    {
        OFFSET -13.970595359802246 0.0 0.0
        CHANNELS 3 Zrotation Xrotation Yrotation
        JOINT RightKnee
        {
            OFFSET 0.0 -40.64476013183594 0.0
            CHANNELS 3 Zrotation Xrotation Yrotation
            JOINT RightAnkle
            {
                OFFSET 0.0 -44.77924728393555 0.0
                CHANNELS 3 Zrotation Xrotation Yrotation
                JOINT RightFoot
                {
                    OFFSET 0.0 -10.066080093383789 0.0
                    CHANNELS 3 Zrotation Xrotation Yrotation
                    End Site
                    {
                        OFFSET 0.0 0.0 4.026432037353516
                    }
                }
            }
        }
    }
}
MOTION
Frames: 9
Frame Time: 0.03333333333333333
53.10000228881836 23.899999618530273 40.599998474121094 18.59108618204344 16.328578220928847 174.13396791745728 11.788543659678455 3.0099604286199355 -0.8363479172884845 -3.488176733285356e-08 -1.2767634733465263e-07 -29.53155834079159 128.38691207816206 15.331617136195112 -93.97859436941971 -1.258745946537118e-06 -2.1453249211230092e-08 31.27772364576021 6.5348162433871096e-06 -35.6046010548163 44.00660533651237 -8.74652537402467e-15 3.1805546814635164e-15 3.1805546814635168e-15 -168.68491107175558 64.54204174727329 139.75287921229545 4.318662754968359e-07 3.436543244280338e-07 -49.766153137127084 -179.99999718306609 -40.05350160841536 144.45909809525818 3.975693351829395e-15 3.1805546814635164e-15 3.1805546814635164e-15 18.675763930130014 -2.3951684416206738 -65.09333922314093 -35.62799609324503 3.710286308312625 -1.6429500968863597 67.73634361689594 15.67246087286776 -95.85939737612489 -2.3173008064763334e-31 5.565970692561154e-15 4.770832022195275e-15 -93.66061478259009 -41.72110766256136 178.66093041974165 -69.25231988113406 -31.587365621403645 -132.2753821439488 -111.53333328243609 54.005478674998315 165.10837089092814 0.0 0.0 0.0
51.400001525878906 28.099998474121094 45.29999923706055 18.898240295236782 14.343278113026665 159.96144143924195 14.056255617963672 4.336902919127938 -1.5563313482648595 5.793068172096224e-07 -1.2673103462292408e-06 -28.76835621319077 122.88024903541611 19.7124123313915 -93.68651140677869 1.1540028640923098e-06 -2.5849847694910592e-06 23.221219031028685 -2.2732154172100557e-06 -31.654523294592032 48.95400769268842 -6.3611093629270335e-15 -3.531125038440127e-31 6.3611093629270335e-15 -141.93736883150794 57.30123689198797 113.52047702158536 2.005463179513291e-06 -3.6938312328382495e-06 -48.81379699642795 179.9999966722376 -45.352116045249076 140.57683834963996 -3.1805546814635168e-15 -8.827812596100317e-32 3.1805546814635168e-15 24.437955200231126 -12.636133222451848 -71.07876638495937 -44.66263993181097 -6.411116910853143 2.846174051759701 81.52384559074287 24.269452879375883 -123.76398434720814 6.361109362927033e-15 -6.361109362927033e-15 3.531125038440127e-31 -94.15211589306182 -43.03779552842218 178.1484348349957 -67.2891049543264 -28.279942184369595 -137.29296637526312 -108.26078032150339 47.87180167160745 164.76774343375172 0.0 7.951386703658791e-16 0.0
49.900001525878906 31.5 50.5 18.741360440491665 12.859656851411039 146.77943734123215 13.358405895962113 8.703551500586283 -3.2996732354634997 -2.9495191731127987e-09 -8.389061851499317e-07 -21.547697416658117 123.80113508608196 22.676911134342664 -93.87544882949216 -2.3769740264171845e-07 -3.5561925890886196e-06 21.095045973558317 5.81049728749047e-06 -32.4997068919405 54.395825349627216 1.5902773407317584e-15 3.1805546814635164e-15 -6.361109362927033e-15 -131.04733681324188 48.72534161656027 106.57028208598956 2.36849636923242e-06 -6.151445781813484e-06 -44.94874570384709 -179.9999977262281 -38.35537785461714 136.4406691333983 3.1805546814635168e-15 1.7655625192200634e-31 6.3611093629270335e-15 33.454600241745226 -23.507865042228936 -96.01015572316311 -37.99844664606937 -25.529180824760978 20.03286278987231 93.46394153246503 25.63595770221821 -151.98195411280383 0.0 6.361109362927033e-15 0.0 -87.73085784619657 -44.08758821880686 -176.98748725929977 -65.33291889738302 -24.284041069481518 -148.18141242489705 -106.78379256380512 39.84302144818778 164.2410155916793 0.0 0.0 0.0
48.79999923706055 33.599998474121094 55.69999694824219 19.19883024667195 10.509143983836475 135.57633441007604 11.674275563022265 12.050275710646424 -3.5180814669914238 -8.464076718242188e-08 -2.3333510296696425e-07 -16.547386151668714 116.8084993202941 26.13323777819886 -91.15685594542067 4.804368266289905e-07 8.312530153533574e-06 19.412692774413735 -5.8365068779040326e-06 -27.116196629264667 57.55393034469306 3.1805546814635168e-15 -3.1805546814635168e-15 3.1805546814635168e-15 -122.95917119182705 38.861006470994184 102.4296810711033 -3.4337148440194304e-07 2.875187825664591e-06 -37.68524425026833 -179.99999840207934 -33.526310686698935 138.9027281427392 -1.5902773407317584e-15 2.2069531490250793e-32 -1.5902773407317584e-15 48.35282850647427 -33.45359057639308 -153.80850089618534 8.31259278590717 -37.64342268211413 86.5323426030752 94.37575120364079 31.68319514514437 -160.95283847254845 0.0 0.0 -6.3611093629270335e-15 -78.37045660358407 -42.07726987333189 -179.63972913175903 -63.05935594315048 -27.72570483685074 -149.40916281030044 -109.13340483118299 36.26401475171247 163.3708579541547 0.0 1.5902773407317584e-15 0.0
47.900001525878906 34.099998474121094 60.29999923706055 17.981431160272205 9.007906491534497 124.09493811819183 7.431808115793729 14.54231820375113 -3.464510214005628 9.991126816815035e-07 -2.0193315844561464e-07 -9.114273786154818 107.25864413388561 29.832676810971037 -85.1523126274337 3.4133977720904917e-06 -5.352814519859342e-06 16.59619915091308 -3.83556674648555e-07 -23.559150247436122 61.72420505375249 1.5902773407317584e-15 0.0 0.0 -113.14813394304413 29.924427418115002 97.02800454808035 -9.925197778208322e-07 3.950353280516556e-06 -29.71320748259579 179.9999992623828 -26.078645801160935 135.0484813995547 -1.5902773407317584e-15 -2.2069531490250793e-32 1.5902773407317584e-15 69.36897271743496 -36.97582392699201 -162.03088347099109 17.746678016619388 -23.727605822670707 71.41590011623056 122.71755180084483 70.54126438922843 172.60339827638498 0.0 -3.1805546814635168e-15 0.0 -68.9383878708127 -40.96912717172579 178.00194360921614 -60.72700047915037 -32.55890005792111 -152.93772894019162 -105.26571374732839 31.1805070093026 157.06136929980553 0.0 0.0 -3.975693351829396e-16
47.5 33.5 64.20000457763672 18.130186555688944 8.136606169061324 114.10960169496488 3.2821516574417444 17.852674231817616 -2.4667979904768784 -9.979531064947245e-08 5.3398885861419445e-08 -2.6152941034306707 90.92338874894001 30.076979107741565 -72.8704090917217 -5.5083252905397534e-06 -7.747935896600212e-06 12.771421104718893 3.294346136214787e-06 -17.02589136080009 63.91316398861687 7.951386703658792e-15 0.0 0.0 -103.41059373478743 23.340091584857813 91.10259679612601 1.1024230238605982e-06 5.462771580125738e-06 -22.408067717401718 179.99999707065268 -24.5402719176584 128.49746712119267 3.310429723537619e-32 -6.3611093629270335e-15 5.963540027744094e-16 88.51108114308697 -37.04717907842563 -157.24220247916642 10.136935402723926 -12.146336100444266 22.175399264243158 -124.26584856402754 47.730838325301434 56.56280654669484 7.951386703658792e-16 -4.4139062980501586e-32 -6.3611093629270335e-15 -58.88456879459551 -36.552169389525375 142.2774164773981 -23.65515387204856 -61.08221709882826 -106.93230708492369 -103.0777320341663 30.808385135657776 149.43542539103132 0.0 0.0 2.2860236773019026e-15
47.20000076293945 31.60000228881836 67.5999984741211 17.067408325099898 6.695804425931712 103.23783274342222 -0.908809417006668 19.171104847706516 -0.519468320206508 -8.057901551349489e-08 2.5222714243754396e-07 3.461251216607932 90.5206512947565 36.96958564210352 -72.3440201566348 -2.877406345430575e-06 -9.55215734140753e-06 16.40380027256278 -2.211271926762913e-06 -25.326307734497906 64.95318076640778 -3.1805546814635168e-15 3.1805546814635168e-15 8.827812596100317e-32 -95.10212120791672 16.48831689520067 85.28834030859801 1.795082747329731e-07 -1.650517577728701e-07 -18.087795879665556 -179.99999777800548 -19.9456385338722 123.67578947088975 0.0 0.0 0.0 107.87883340657602 -34.667607581299194 -147.95534851263895 1.1110697657684303 -2.0101199706579624 1.8761026033874244 -141.82088692821478 27.213745457174582 108.72763434234646 -1.5902773407317584e-15 -5.517382872562698e-33 3.975693351829396e-16 -49.907314483410495 -33.61222968943894 90.60893048560087 51.34003548067019 -39.23735814401904 -18.04344489043979 -100.91988669160472 32.07138286722758 139.30275666800947 0.0 0.0 3.975693351829396e-16
47.400001525878906 28.899999618530273 69.9000015258789 17.52558022963758 7.622940405749338 90.64557980885921 -7.374982096945299 21.218299777336718 3.427753578145316 6.721230798262472e-08 1.1533154408905988e-07 8.331431350125843 88.05098310000122 46.32742119447731 -71.62284265262451 2.0373347158073154e-06 -9.464857207879152e-06 17.755384989500214 -1.1698742750651055e-06 -30.021711786926854 63.30748435140265 0.0 6.3611093629270335e-15 0.0 -99.84363299106259 11.742866241119353 83.69587423139265 -5.9088987732927325e-08 1.1520313761257146e-06 -22.26096949904424 -179.99999955252844 -7.259778951892419 120.23025158185429 0.0 0.0 4.770832022195275e-15 124.9841071596188 -30.68064414671925 -141.09292395755946 5.13372063006216 -4.586877264338272 3.5537557163988427 -130.5297173467632 23.47914491029951 97.09641077731908 -2.3854160110976376e-15 6.3611093629270335e-15 1.3241718894150476e-31 -43.42010246342743 -30.12219696803486 78.27375247644552 54.42798119095017 -23.864537214598624 -7.850826929160891 -92.5572795164924 35.27917284097974 121.81862413488184 -5.517382872562698e-32 6.3611093629270335e-15 9.93923337957349e-16
48.20000076293945 25.799999237060547 71.30000305175781 18.13019324694989 10.482550607533609 72.7334739672174 -14.581306885763565 18.6425007650679 4.506613678474078 3.2438864129457646e-07 3.473726322005839e-07 20.234152890522136 98.62507240224934 59.04020305357786 -87.90822818473644 -2.173892418224325e-06 -1.0093794442912847e-05 18.837721224285183 -3.288795150871432e-07 -42.31210820050915 64.77209150916978 2.3854160110976376e-15 0.0 0.0 -113.81328387624829 10.106799365263258 84.88726423017091 -6.089890720191434e-07 -5.8920035962611e-07 -31.521150559579073 179.99999958091746 -3.03664316265721 121.59866091896778 4.4139062980501586e-32 -6.361109362927033e-15 7.951386703658791e-16 138.2825188252109 -22.229437302953762 -134.39190367083114 17.025355738936785 -8.69558784141567 6.031829156688471 -110.75491988724211 10.086931983533058 35.62078032747746 1.1927080055488186e-15 7.951386703658791e-16 1.5902773407317582e-15 -34.96938344637494 -30.715342146319422 57.28521081568106 50.71250180190601 4.419111241473304 1.3864089920743357 -88.93495333884066 28.191717734973054 121.78840410389992 -3.1805546814635168e-15 6.3611093629270335e-15 1.5902773407317584e-15
